<svg width="164" height="30" viewBox="0 0 164 30" fill="none" xmlns="http://www.w3.org/2000/svg">
<path d="M18.24 3.88H11.744C10.4213 3.88 9.22667 4.104 8.16 4.552C7.08267 5 6.224 5.688 5.584 6.616C4.944 7.544 4.624 8.73867 4.624 10.2C4.624 11.6613 4.944 12.8827 5.584 13.864C6.224 14.8347 7.08267 15.5653 8.16 16.056C9.22667 16.5467 10.4213 16.792 11.744 16.792H14.88V25H18.24V3.88ZM14.88 14.04H12.672C11.8507 14.04 11.104 13.9227 10.432 13.688C9.74933 13.4427 9.21067 13.0427 8.816 12.488C8.41067 11.9333 8.208 11.1973 8.208 10.28C8.208 9.352 8.41067 8.62667 8.816 8.104C9.21067 7.57067 9.74933 7.192 10.432 6.968C11.104 6.744 11.8507 6.632 12.672 6.632H14.88V14.04Z" fill="#C99C33"/>
<path d="M15.664 3.88H21.968C23.1307 3.88 24.2187 4.04 25.232 4.36C26.256 4.66933 27.0827 5.19733 27.712 5.944C28.3413 6.68 28.656 7.69867 28.656 9C28.656 9.87467 28.4853 10.664 28.144 11.368C27.8133 12.072 27.392 12.6427 26.88 13.08C26.368 13.5173 25.8453 13.784 25.312 13.88C25.76 13.9227 26.2293 14.0613 26.72 14.296C27.2213 14.52 27.6907 14.84 28.128 15.256C28.576 15.672 28.9387 16.1947 29.216 16.824C29.4933 17.4533 29.632 18.1893 29.632 19.032C29.632 20.2053 29.3867 21.24 28.896 22.136C28.4053 23.032 27.6747 23.736 26.704 24.248C25.7333 24.7493 24.5173 25 23.056 25H15.664V3.88ZM19.024 22.232H22.512C23.4293 22.232 24.144 22.0773 24.656 21.768C25.1787 21.4587 25.552 21.048 25.776 20.536C26 20.0133 26.112 19.4427 26.112 18.824C26.112 17.8107 25.7867 17.016 25.136 16.44C24.4853 15.864 23.552 15.576 22.336 15.576H19.024V22.232ZM19.024 12.856H22.064C22.8 12.856 23.408 12.7067 23.888 12.408C24.368 12.0987 24.7253 11.6933 24.96 11.192C25.1947 10.68 25.312 10.1467 25.312 9.592C25.312 8.472 24.9867 7.704 24.336 7.288C23.6853 6.86133 22.816 6.648 21.728 6.648H19.024V12.856Z" fill="#C99C33"/>
<path d="M32.68 5.52H37.916C39.0733 5.52 40.114 5.71133 41.038 6.094C41.9713 6.46733 42.7133 7.05533 43.264 7.858C43.8147 8.66067 44.09 9.706 44.09 10.994C44.09 12.2727 43.8147 13.332 43.264 14.172C42.7133 15.012 41.9713 15.642 41.038 16.062C40.114 16.4727 39.0733 16.678 37.916 16.678H35.074V24H32.68V5.52ZM35.074 14.676H37.258C38.0513 14.676 38.77 14.5593 39.414 14.326C40.0673 14.0927 40.5853 13.71 40.968 13.178C41.36 12.646 41.556 11.932 41.556 11.036C41.556 10.1307 41.36 9.426 40.968 8.922C40.5853 8.40867 40.0673 8.04933 39.414 7.844C38.77 7.62933 38.0513 7.522 37.258 7.522H35.074V14.676ZM55.3272 24V21.76C55.2525 21.9933 55.0332 22.3153 54.6692 22.726C54.3145 23.1367 53.8245 23.51 53.1992 23.846C52.5832 24.1727 51.8552 24.336 51.0152 24.336C49.9512 24.336 48.9852 24.084 48.1172 23.58C47.2585 23.076 46.5725 22.3713 46.0592 21.466C45.5552 20.5513 45.3032 19.4827 45.3032 18.26C45.3032 17.0373 45.5552 15.9733 46.0592 15.068C46.5725 14.1533 47.2585 13.444 48.1172 12.94C48.9852 12.4267 49.9512 12.17 51.0152 12.17C51.8459 12.17 52.5645 12.3193 53.1712 12.618C53.7872 12.9167 54.2772 13.262 54.6412 13.654C55.0145 14.046 55.2339 14.382 55.2992 14.662V12.506H57.7072V24H55.3272ZM47.7112 18.26C47.7112 19.0907 47.8932 19.8093 48.2572 20.416C48.6212 21.0227 49.0925 21.494 49.6712 21.83C50.2592 22.1567 50.8845 22.32 51.5472 22.32C52.2565 22.32 52.8912 22.152 53.4512 21.816C54.0112 21.48 54.4545 21.0087 54.7812 20.402C55.1079 19.786 55.2712 19.072 55.2712 18.26C55.2712 17.448 55.1079 16.7387 54.7812 16.132C54.4545 15.516 54.0112 15.04 53.4512 14.704C52.8912 14.3587 52.2565 14.186 51.5472 14.186C50.8845 14.186 50.2592 14.354 49.6712 14.69C49.0925 15.026 48.6212 15.4973 48.2572 16.104C47.8932 16.7107 47.7112 17.4293 47.7112 18.26ZM67.3882 12.17C68.1442 12.17 68.8769 12.3287 69.5862 12.646C70.3049 12.9633 70.8929 13.4673 71.3502 14.158C71.8169 14.8393 72.0502 15.7307 72.0502 16.832V24H69.5862V17.308C69.5862 16.1693 69.3202 15.3433 68.7882 14.83C68.2562 14.3073 67.5702 14.046 66.7302 14.046C66.1795 14.046 65.6475 14.2047 65.1342 14.522C64.6302 14.83 64.2149 15.2593 63.8882 15.81C63.5615 16.3513 63.3982 16.9673 63.3982 17.658V24H60.9622V12.506H63.3982V14.55C63.4822 14.2327 63.7109 13.8873 64.0842 13.514C64.4575 13.1407 64.9335 12.8233 65.5122 12.562C66.0909 12.3007 66.7162 12.17 67.3882 12.17ZM80.3036 24.336C79.249 24.336 78.3016 24.084 77.4616 23.58C76.631 23.076 75.973 22.3713 75.4876 21.466C75.0116 20.5513 74.7736 19.4827 74.7736 18.26C74.7736 17.0373 75.0116 15.9733 75.4876 15.068C75.973 14.1533 76.631 13.444 77.4616 12.94C78.3016 12.4267 79.249 12.17 80.3036 12.17C81.153 12.17 81.8996 12.3193 82.5436 12.618C83.1876 12.9073 83.701 13.248 84.0836 13.64C84.4663 14.032 84.6856 14.3727 84.7416 14.662V4.736H87.1916V24H84.7836V21.76C84.681 22.0773 84.4243 22.4367 84.0136 22.838C83.6123 23.2393 83.0943 23.5893 82.4596 23.888C81.825 24.1867 81.1063 24.336 80.3036 24.336ZM80.8636 22.32C81.573 22.32 82.2216 22.152 82.8096 21.816C83.3976 21.48 83.8643 21.0087 84.2096 20.402C84.5643 19.786 84.7416 19.072 84.7416 18.26C84.7416 17.448 84.5643 16.7387 84.2096 16.132C83.8643 15.516 83.3976 15.04 82.8096 14.704C82.2216 14.3587 81.573 14.186 80.8636 14.186C80.2103 14.186 79.6036 14.354 79.0436 14.69C78.4836 15.026 78.031 15.4973 77.6856 16.104C77.3496 16.7107 77.1816 17.4293 77.1816 18.26C77.1816 19.0907 77.3496 19.8093 77.6856 20.416C78.031 21.0227 78.4836 21.494 79.0436 21.83C79.6036 22.1567 80.2103 22.32 80.8636 22.32ZM99.1592 24V21.76C99.0846 21.9933 98.8652 22.3153 98.5012 22.726C98.1466 23.1367 97.6566 23.51 97.0312 23.846C96.4152 24.1727 95.6872 24.336 94.8472 24.336C93.7832 24.336 92.8172 24.084 91.9492 23.58C91.0906 23.076 90.4046 22.3713 89.8912 21.466C89.3872 20.5513 89.1352 19.4827 89.1352 18.26C89.1352 17.0373 89.3872 15.9733 89.8912 15.068C90.4046 14.1533 91.0906 13.444 91.9492 12.94C92.8172 12.4267 93.7832 12.17 94.8472 12.17C95.6779 12.17 96.3966 12.3193 97.0032 12.618C97.6192 12.9167 98.1092 13.262 98.4732 13.654C98.8466 14.046 99.0659 14.382 99.1312 14.662V12.506H101.539V24H99.1592ZM91.5432 18.26C91.5432 19.0907 91.7252 19.8093 92.0892 20.416C92.4532 21.0227 92.9246 21.494 93.5032 21.83C94.0912 22.1567 94.7166 22.32 95.3792 22.32C96.0886 22.32 96.7232 22.152 97.2832 21.816C97.8432 21.48 98.2866 21.0087 98.6132 20.402C98.9399 19.786 99.1032 19.072 99.1032 18.26C99.1032 17.448 98.9399 16.7387 98.6132 16.132C98.2866 15.516 97.8432 15.04 97.2832 14.704C96.7232 14.3587 96.0886 14.186 95.3792 14.186C94.7166 14.186 94.0912 14.354 93.5032 14.69C92.9246 15.026 92.4532 15.4973 92.0892 16.104C91.7252 16.7107 91.5432 17.4293 91.5432 18.26ZM104.864 5.52H110.002C111.01 5.52 111.958 5.65533 112.844 5.926C113.731 6.19667 114.45 6.654 115 7.298C115.551 7.942 115.826 8.838 115.826 9.986C115.826 10.7607 115.672 11.4653 115.364 12.1C115.066 12.7253 114.692 13.234 114.244 13.626C113.796 14.018 113.353 14.2513 112.914 14.326C113.269 14.354 113.661 14.466 114.09 14.662C114.529 14.858 114.944 15.138 115.336 15.502C115.738 15.866 116.064 16.3233 116.316 16.874C116.578 17.4153 116.708 18.0593 116.708 18.806C116.708 19.814 116.503 20.71 116.092 21.494C115.682 22.278 115.056 22.894 114.216 23.342C113.386 23.7807 112.331 24 111.052 24H104.864V5.52ZM107.244 21.998H110.814C111.701 21.998 112.387 21.844 112.872 21.536C113.367 21.2187 113.712 20.808 113.908 20.304C114.114 19.8 114.216 19.2633 114.216 18.694C114.216 17.7513 113.908 16.9907 113.292 16.412C112.676 15.8333 111.785 15.544 110.618 15.544H107.244V21.998ZM107.244 13.584H110.338C111.048 13.584 111.631 13.43 112.088 13.122C112.546 12.8047 112.886 12.4033 113.11 11.918C113.334 11.4233 113.446 10.9147 113.446 10.392C113.446 9.31867 113.129 8.572 112.494 8.152C111.869 7.732 111.029 7.522 109.974 7.522H107.244V13.584ZM128.937 24V21.76C128.862 21.9933 128.643 22.3153 128.279 22.726C127.924 23.1367 127.434 23.51 126.809 23.846C126.193 24.1727 125.465 24.336 124.625 24.336C123.561 24.336 122.595 24.084 121.727 23.58C120.868 23.076 120.182 22.3713 119.669 21.466C119.165 20.5513 118.913 19.4827 118.913 18.26C118.913 17.0373 119.165 15.9733 119.669 15.068C120.182 14.1533 120.868 13.444 121.727 12.94C122.595 12.4267 123.561 12.17 124.625 12.17C125.455 12.17 126.174 12.3193 126.781 12.618C127.397 12.9167 127.887 13.262 128.251 13.654C128.624 14.046 128.843 14.382 128.909 14.662V12.506H131.317V24H128.937ZM121.321 18.26C121.321 19.0907 121.503 19.8093 121.867 20.416C122.231 21.0227 122.702 21.494 123.281 21.83C123.869 22.1567 124.494 22.32 125.157 22.32C125.866 22.32 126.501 22.152 127.061 21.816C127.621 21.48 128.064 21.0087 128.391 20.402C128.717 19.786 128.881 19.072 128.881 18.26C128.881 17.448 128.717 16.7387 128.391 16.132C128.064 15.516 127.621 15.04 127.061 14.704C126.501 14.3587 125.866 14.186 125.157 14.186C124.494 14.186 123.869 14.354 123.281 14.69C122.702 15.026 122.231 15.4973 121.867 16.104C121.503 16.7107 121.321 17.4293 121.321 18.26ZM140.998 12.17C141.754 12.17 142.486 12.3287 143.196 12.646C143.914 12.9633 144.502 13.4673 144.96 14.158C145.426 14.8393 145.66 15.7307 145.66 16.832V24H143.196V17.308C143.196 16.1693 142.93 15.3433 142.398 14.83C141.866 14.3073 141.18 14.046 140.34 14.046C139.789 14.046 139.257 14.2047 138.744 14.522C138.24 14.83 137.824 15.2593 137.498 15.81C137.171 16.3513 137.008 16.9673 137.008 17.658V24H134.572V12.506H137.008V14.55C137.092 14.2327 137.32 13.8873 137.694 13.514C138.067 13.1407 138.543 12.8233 139.122 12.562C139.7 12.3007 140.326 12.17 140.998 12.17ZM155.873 12.506H158.813L152.877 17.98L159.205 24H156.223L150.889 18.904V24H148.453V4.736H150.889V17.056L155.873 12.506Z" fill="#E1ECEB"/>
</svg>
