<svg width="60" height="60" viewBox="0 0 60 60" fill="none" xmlns="http://www.w3.org/2000/svg">
<path d="M54.661 13.8281H47.2246C46.5225 13.8281 45.9534 14.3528 45.9534 15C45.9534 15.6472 46.5225 16.1719 47.2246 16.1719H54.661C56.2031 16.1719 57.4576 17.3284 57.4576 18.75V32.1236C57.4576 33.6551 56.106 34.9011 54.4447 34.9011H53.1356V26.25C53.1356 23.5361 50.7406 21.3281 47.7966 21.3281H29.0466V17.7539C29.0466 17.1067 28.4775 16.582 27.7754 16.582C27.0733 16.582 26.5042 17.1067 26.5042 17.7539V21.3281H5.33898C3.79691 21.3281 2.54237 20.1716 2.54237 18.75C2.54237 17.3284 3.79691 16.1719 5.33898 16.1719H13.7507C14.4528 16.1719 15.0219 15.6472 15.0219 15C15.0219 14.3528 14.4528 13.8281 13.7507 13.8281H5.33898C2.39504 13.8281 0 16.0361 0 18.75C0 18.815 0.00266947 18.8796 0.00533896 18.9441C0.00254235 18.9764 0 19.0087 0 19.0417V55.0781C0 57.7921 2.39504 60 5.33898 60L54.661 59.9986C57.605 59.9986 60 57.7907 60 55.0767V18.75C60 16.0362 57.605 13.8281 54.661 13.8281ZM50.5932 55.0781C50.5932 56.4816 49.3703 57.6259 47.8553 57.6548H47.7966C47.7867 57.6548 47.777 57.656 47.7671 57.6563H5.33898C3.79691 57.6563 2.54237 56.4997 2.54237 55.0781V22.9405C3.35631 23.4038 4.31415 23.6719 5.33898 23.6719H47.7966C49.3387 23.6719 50.5932 24.8284 50.5932 26.25V34.9011H39.1525C34.8067 34.9011 31.2712 38.1605 31.2712 42.1668C31.2712 46.173 34.8067 49.4324 39.1525 49.4324H50.5932V55.0781ZM57.4576 55.0768C57.4576 56.4984 56.2031 57.655 54.661 57.655H52.3431C52.8451 56.905 53.1356 56.0224 53.1356 55.0782V49.4325H53.8983C55.2259 49.4325 56.4549 49.0384 57.4576 48.3721V55.0768ZM57.4576 43.8075C57.4576 45.6168 55.8609 47.0888 53.8983 47.0888H39.1525C36.2086 47.0888 33.8136 44.8808 33.8136 42.1669C33.8136 39.4529 36.2086 37.245 39.1525 37.245H54.4447C55.5548 37.245 56.589 36.9421 57.4576 36.4229V43.8075Z" fill="#C99C33"/>
<path d="M36.7373 7.63688C33.4439 7.63688 30.7646 10.1068 30.7646 13.1429C30.7646 16.179 33.444 18.649 36.7373 18.649C40.0307 18.649 42.71 16.179 42.71 13.1429C42.71 10.1068 40.0307 7.63688 36.7373 7.63688ZM36.7373 16.3052C34.8458 16.3052 33.307 14.8867 33.307 13.1429C33.307 11.3992 34.8459 9.98063 36.7373 9.98063C38.6287 9.98063 40.1676 11.3992 40.1676 13.1429C40.1676 14.8867 38.6288 16.3052 36.7373 16.3052Z" fill="#C99C33"/>
<path d="M24.4068 0C21.1134 0 18.4341 2.46996 18.4341 5.50605C18.4341 8.54215 21.1135 11.0121 24.4068 11.0121C27.7002 11.0121 30.3795 8.54215 30.3795 5.50605C30.3795 2.46996 27.7002 0 24.4068 0ZM24.4068 8.66836C22.5153 8.66836 20.9765 7.2498 20.9765 5.50605C20.9765 3.7623 22.5154 2.34375 24.4068 2.34375C26.2982 2.34375 27.8371 3.7623 27.8371 5.50605C27.8371 7.2498 26.2983 8.66836 24.4068 8.66836Z" fill="#C99C33"/>
<path d="M46.1026 1.95222H45.3813V1.2873C45.3813 0.640074 44.8122 0.115425 44.1101 0.115425C43.4081 0.115425 42.839 0.640074 42.839 1.2873V1.95222H42.1177C41.4156 1.95222 40.8465 2.47687 40.8465 3.1241C40.8465 3.77132 41.4156 4.29597 42.1177 4.29597H42.839V4.96101C42.839 5.60824 43.4081 6.13289 44.1101 6.13289C44.8122 6.13289 45.3813 5.60824 45.3813 4.96101V4.29597H46.1026C46.8047 4.29597 47.3738 3.77132 47.3738 3.1241C47.3738 2.47687 46.8047 1.95222 46.1026 1.95222Z" fill="#C99C33"/>
<path d="M20.2967 11.4551C19.5946 11.4551 19.0255 11.9798 19.0255 12.627V17.373C19.0255 18.0203 19.5946 18.5449 20.2967 18.5449C20.9987 18.5449 21.5679 18.0203 21.5679 17.373V12.627C21.5679 11.9797 20.9987 11.4551 20.2967 11.4551Z" fill="#C99C33"/>
<path d="M40.8242 41.4845C40.5864 41.2665 40.2597 41.141 39.9242 41.141C39.5898 41.141 39.2631 41.2664 39.0254 41.4845C38.789 41.7023 38.6542 42.0047 38.6542 42.3129C38.6542 42.6212 38.789 42.9236 39.0254 43.1414C39.2631 43.3606 39.5898 43.4848 39.9242 43.4848C40.2597 43.4848 40.5864 43.3606 40.8242 43.1414C41.0606 42.9236 41.1966 42.6212 41.1966 42.3129C41.1966 42.0047 41.0606 41.7023 40.8242 41.4845Z" fill="#C99C33"/>
<path d="M8.43232 30.4688C7.73024 30.4688 7.16113 30.9935 7.16113 31.6406V41.289C7.16113 41.9361 7.73024 42.4609 8.43232 42.4609C9.1344 42.4609 9.70351 41.9361 9.70351 41.289V31.6406C9.70351 30.9935 9.1344 30.4688 8.43232 30.4688Z" fill="#C99C33"/>
<path d="M9.33053 44.5043C9.09409 44.2864 8.76739 44.1609 8.4318 44.1609C8.09748 44.1609 7.76951 44.2863 7.53307 44.5043C7.29663 44.7223 7.16061 45.0246 7.16061 45.3328C7.16061 45.641 7.29663 45.9434 7.53307 46.1613C7.76951 46.3792 8.09748 46.5047 8.4318 46.5047C8.76739 46.5047 9.09409 46.3793 9.33053 46.1613C9.56824 45.9434 9.70299 45.641 9.70299 45.3328C9.70299 45.0246 9.56824 44.7223 9.33053 44.5043Z" fill="#C99C33"/>
</svg>
