<svg width="40" height="40" viewBox="0 0 40 40" fill="none" xmlns="http://www.w3.org/2000/svg">
<path d="M0 6C0 2.68629 2.68629 0 6 0H34C37.3137 0 40 2.68629 40 6V34C40 37.3137 37.3137 40 34 40H6C2.68629 40 0 37.3137 0 34V6Z" fill="#C99C33"/>
<g clip-path="url(#clip0_56_37)">
<path d="M13 13.5C13 12.5717 13.3687 11.6815 14.0251 11.0251C14.6815 10.3687 15.5717 10 16.5 10H20V17H16.5C15.5717 17 14.6815 16.6313 14.0251 15.9749C13.3687 15.3185 13 14.4283 13 13.5Z" stroke="white" stroke-width="2" stroke-linecap="round" stroke-linejoin="round"/>
<path d="M20 10H23.5C23.9596 10 24.4148 10.0905 24.8394 10.2664C25.264 10.4423 25.6499 10.7001 25.9749 11.0251C26.2999 11.3501 26.5577 11.736 26.7336 12.1606C26.9095 12.5852 27 13.0404 27 13.5C27 13.9596 26.9095 14.4148 26.7336 14.8394C26.5577 15.264 26.2999 15.6499 25.9749 15.9749C25.6499 16.2999 25.264 16.5577 24.8394 16.7336C24.4148 16.9095 23.9596 17 23.5 17H20V10Z" stroke="white" stroke-width="2" stroke-linecap="round" stroke-linejoin="round"/>
<path d="M20 20.5C20 20.0404 20.0905 19.5852 20.2664 19.1606C20.4423 18.736 20.7001 18.3501 21.0251 18.0251C21.3501 17.7001 21.736 17.4423 22.1606 17.2664C22.5852 17.0905 23.0404 17 23.5 17C23.9596 17 24.4148 17.0905 24.8394 17.2664C25.264 17.4423 25.6499 17.7001 25.9749 18.0251C26.2999 18.3501 26.5577 18.736 26.7336 19.1606C26.9095 19.5852 27 20.0404 27 20.5C27 20.9596 26.9095 21.4148 26.7336 21.8394C26.5577 22.264 26.2999 22.6499 25.9749 22.9749C25.6499 23.2999 25.264 23.5577 24.8394 23.7336C24.4148 23.9095 23.9596 24 23.5 24C23.0404 24 22.5852 23.9095 22.1606 23.7336C21.736 23.5577 21.3501 23.2999 21.0251 22.9749C20.7001 22.6499 20.4423 22.264 20.2664 21.8394C20.0905 21.4148 20 20.9596 20 20.5ZM20 20.5V20.5Z" stroke="white" stroke-width="2" stroke-linecap="round" stroke-linejoin="round"/>
<path d="M13 27.5C13 26.5717 13.3687 25.6815 14.0251 25.0251C14.6815 24.3687 15.5717 24 16.5 24H20V27.5C20 28.4283 19.6313 29.3185 18.9749 29.9749C18.3185 30.6313 17.4283 31 16.5 31C15.5717 31 14.6815 30.6313 14.0251 29.9749C13.3687 29.3185 13 28.4283 13 27.5Z" stroke="white" stroke-width="2" stroke-linecap="round" stroke-linejoin="round"/>
<path d="M13 20.5C13 19.5717 13.3687 18.6815 14.0251 18.0251C14.6815 17.3687 15.5717 17 16.5 17H20V24H16.5C15.5717 24 14.6815 23.6313 14.0251 22.9749C13.3687 22.3185 13 21.4283 13 20.5Z" stroke="white" stroke-width="2" stroke-linecap="round" stroke-linejoin="round"/>
</g>
<defs>
<clipPath id="clip0_56_37">
<rect width="24" height="24" fill="white" transform="translate(8 8)"/>
</clipPath>
</defs>
</svg>
