<svg width="48" height="47" viewBox="0 0 48 47" fill="none" xmlns="http://www.w3.org/2000/svg">
<circle cx="23.2263" cy="23.2263" r="23.2263" transform="matrix(1 0 -0.000872668 1 0.999992 -0.000244141)" fill="#C99C33"/>
<path d="M17.6361 17.4765C17.7507 15.7234 18.4211 14.3568 19.6472 13.3766C20.8922 12.3963 22.476 11.9062 24.3988 11.9062C25.7183 11.9062 26.8585 12.1419 27.8195 12.6131C28.7804 13.0844 29.5056 13.7253 29.995 14.5359C30.4844 15.3464 30.7287 16.2607 30.7278 17.2786C30.7268 18.4473 30.4149 19.4464 29.7921 20.2758C29.1693 21.1052 28.4242 21.6613 27.5569 21.944L27.5568 22.0571C28.6686 22.3964 29.5352 23.0185 30.1565 23.9233C30.7778 24.8093 31.0878 25.9497 31.0866 27.3447C31.0856 28.4568 30.8303 29.4465 30.3206 30.3136C29.8108 31.1807 29.0562 31.8687 28.0567 32.3777C27.0572 32.8678 25.86 33.1128 24.4651 33.1128C22.4292 33.1128 20.752 32.5945 19.4334 31.5577C18.1336 30.5021 17.4375 28.9941 17.345 27.0336H20.4553C20.5298 28.0327 20.9155 28.8527 21.6124 29.4936C22.3093 30.1156 23.2516 30.4267 24.4391 30.4267C25.589 30.4267 26.4753 30.1156 27.0979 29.4936C27.7205 28.8527 28.0322 28.0327 28.0331 27.0336C28.0342 25.7141 27.6109 24.781 26.7631 24.2343C25.9342 23.6688 24.6526 23.3861 22.9184 23.3861H22.1833L22.1856 20.7282H22.949C24.4759 20.7093 25.6354 20.4549 26.4276 19.9647C27.2386 19.4746 27.6445 18.7018 27.6454 17.6462C27.6462 16.7413 27.3547 16.025 26.7708 15.4972C26.1869 14.9506 25.3577 14.6772 24.2832 14.6772C23.2276 14.6772 22.4074 14.9506 21.8226 15.4972C21.2377 16.025 20.8884 16.6848 20.7746 17.4765H17.6361Z" fill="#252D2C"/>
</svg>
