<svg width="80" height="79" viewBox="0 0 80 79" fill="none" xmlns="http://www.w3.org/2000/svg">
<g filter="url(#filter0_d_73_165)">
<circle cx="23.2263" cy="23.2263" r="23.2263" transform="matrix(1 0 -0.000872668 1 17 12)" fill="#C99C33"/>
</g>
<g filter="url(#filter1_d_73_165)">
<path d="M35.4634 40.6173C37.2744 39.0527 38.6987 37.7709 39.7363 36.7718C40.7928 35.7539 41.6703 34.6983 42.3687 33.605C43.0671 32.5117 43.4168 31.4183 43.4178 30.325C43.4188 29.194 43.1462 28.308 42.6001 27.6671C42.0729 27.0262 41.2343 26.7058 40.0844 26.7058C38.9723 26.7058 38.1048 27.0639 37.4821 27.7802C36.8783 28.4777 36.557 29.4202 36.5183 30.6078H33.408C33.4664 28.4588 34.1088 26.8189 35.335 25.6878C36.5802 24.538 38.1547 23.963 40.0585 23.963C42.1132 23.963 43.715 24.5285 44.8639 25.6596C46.0316 26.7906 46.6147 28.2986 46.613 30.1836C46.6118 31.5409 46.262 32.851 45.5634 34.1139C44.8837 35.3581 44.0627 36.4796 43.1005 37.4787C42.1571 38.4589 40.9497 39.5994 39.4783 40.9L38.2049 42.0311H47.1682L47.1659 44.7172H33.424L33.426 42.3704L35.4634 40.6173Z" fill="#252D2C"/>
</g>
<defs>
<filter id="filter0_d_73_165" x="0.979736" y="0" width="78.4526" height="78.4526" filterUnits="userSpaceOnUse" color-interpolation-filters="sRGB">
<feFlood flood-opacity="0" result="BackgroundImageFix"/>
<feColorMatrix in="SourceAlpha" type="matrix" values="0 0 0 0 0 0 0 0 0 0 0 0 0 0 0 0 0 0 127 0" result="hardAlpha"/>
<feOffset dy="4"/>
<feGaussianBlur stdDeviation="8"/>
<feComposite in2="hardAlpha" operator="out"/>
<feColorMatrix type="matrix" values="0 0 0 0 0 0 0 0 0 0 0 0 0 0 0 0 0 0 0.1 0"/>
<feBlend mode="normal" in2="BackgroundImageFix" result="effect1_dropShadow_73_165"/>
<feBlend mode="normal" in="SourceGraphic" in2="effect1_dropShadow_73_165" result="shape"/>
</filter>
<filter id="filter1_d_73_165" x="17.3957" y="11.9631" width="45.7883" height="52.7542" filterUnits="userSpaceOnUse" color-interpolation-filters="sRGB">
<feFlood flood-opacity="0" result="BackgroundImageFix"/>
<feColorMatrix in="SourceAlpha" type="matrix" values="0 0 0 0 0 0 0 0 0 0 0 0 0 0 0 0 0 0 127 0" result="hardAlpha"/>
<feOffset dy="4"/>
<feGaussianBlur stdDeviation="8"/>
<feComposite in2="hardAlpha" operator="out"/>
<feColorMatrix type="matrix" values="0 0 0 0 0 0 0 0 0 0 0 0 0 0 0 0 0 0 0.1 0"/>
<feBlend mode="normal" in2="BackgroundImageFix" result="effect1_dropShadow_73_165"/>
<feBlend mode="normal" in="SourceGraphic" in2="effect1_dropShadow_73_165" result="shape"/>
</filter>
</defs>
</svg>
