<svg width="25" height="22" viewBox="0 0 25 22" fill="none" xmlns="http://www.w3.org/2000/svg">
<path d="M16.362 11.4773L11.1536 15.9933C11.0569 16.0772 10.942 16.1437 10.8155 16.1892C10.6891 16.2346 10.5535 16.2579 10.4167 16.2579C10.2798 16.2579 10.1443 16.2346 10.0178 16.1892C9.89137 16.1437 9.77647 16.0772 9.67969 15.9933C9.5829 15.9093 9.50613 15.8097 9.45376 15.7001C9.40138 15.5904 9.37442 15.4729 9.37442 15.3543C9.37442 15.2356 9.40138 15.1181 9.45376 15.0084C9.50613 14.8988 9.5829 14.7992 9.67969 14.7152L13.1107 11.7415H1.04167C0.765399 11.7415 0.500447 11.6463 0.305097 11.4769C0.109747 11.3076 0 11.0778 0 10.8383C0 10.5988 0.109747 10.369 0.305097 10.1996C0.500447 10.0303 0.765399 9.93511 1.04167 9.93511H13.1107L9.67969 6.96135C9.48423 6.79187 9.37442 6.56201 9.37442 6.32234C9.37442 6.08267 9.48423 5.85281 9.67969 5.68333C9.87515 5.51386 10.1402 5.41865 10.4167 5.41865C10.6931 5.41865 10.9582 5.51386 11.1536 5.68333L16.362 10.1993C16.4588 10.2832 16.5357 10.3828 16.5881 10.4924C16.6405 10.6021 16.6675 10.7196 16.6675 10.8383C16.6675 10.957 16.6405 11.0745 16.5881 11.1842C16.5357 11.2938 16.4588 11.3934 16.362 11.4773ZM22.9167 0H15.625C15.3487 0 15.0838 0.0951576 14.8884 0.264539C14.6931 0.43392 14.5833 0.66365 14.5833 0.903191C14.5833 1.14273 14.6931 1.37246 14.8884 1.54184C15.0838 1.71123 15.3487 1.80638 15.625 1.80638H22.9167V19.8702H15.625C15.3487 19.8702 15.0838 19.9654 14.8884 20.1347C14.6931 20.3041 14.5833 20.5339 14.5833 20.7734C14.5833 21.0129 14.6931 21.2427 14.8884 21.4121C15.0838 21.5814 15.3487 21.6766 15.625 21.6766H22.9167C23.4692 21.6766 23.9991 21.4863 24.3898 21.1475C24.7805 20.8088 25 20.3493 25 19.8702V1.80638C25 1.3273 24.7805 0.86784 24.3898 0.529077C23.9991 0.190315 23.4692 0 22.9167 0Z" fill="#C99C33"/>
</svg>
